<svg xmlns="http://www.w3.org/2000/svg" width="1195.396" height="334.293" viewBox="0 0 1195.3964 334.29266"><g fill-rule="evenodd" stroke="#000" stroke-width=".559"><path d="M206.922 179.008l-147.166-33.08 8.04 126.76 142.372 51.167z" fill="#ffae44"/><path d="M206.922 179.008l140.52-42.975-1.238 123.05-136.036 64.772z" fill="#ffae44"/><path d="M206.922 179.008l-37.41 59.98L28.84 198.64l30.916-52.713zm0 0l42.51 55.65L378.36 180.09l-30.917-44.057zm-147.166-33.08l147.012-46.53-42.202-38.03L10.598 107.59zm147.012-46.532l140.673 36.637 54.42-38.956-143.92-37.564z" fill="#ffc67c"/><path d="M59.756 145.927l147.012-46.53 140.673 36.636-140.51 42.975z" fill="#eac291"/></g><g transform="translate(-29.566 -6.97)"><path d="M221.925 17.814c-4.382-.01-7.823 1.25-11.61 3.055-1.96-2.18-5.22-2.69-7.97-2.73-6.225.242-12.536 2.07-17.494 5.96-3.23 2.5-5.4 6.11-5.54 10.277-.18 3.96 1.27 7.834 3.38 11.134 1.01 1.18 2.16-.47 3.18.7 6.49 5.27 12.45 11.16 18.76 16.65 1.447 1.355 3.235 2.774 4.54 4.035 2.55 2.41 5.12 4.96 8.065 6.916 2.033.188 3.99-1.172 6.094-.874 3.353.217 7.17 2.342 7.64 5.955.485 2.22-.345 4.42-.59 6.576 1.1 2.07 3.18 3.457 4.953 4.938 1.44 1.35 2.81-.577 3.97-1.33 2.533-2.14 5.16-4.186 7.4-6.64 2.39-4.065 3.097-8.606 4.547-13.055 2.285-8.2 4.95-16.277 6.39-24.677.18-3.16-2.297-5.268-3.97-7.718-3.05-3.905-6.36-7.62-9.94-11.015-1.62-.38-2.818.59-4.467.825-1.274.185-2.876.954-4.156.73-2.716-3.07-3.817-7.66-7.817-9.513-1.426-.8-2.383-.433-3.947-.47z" fill="#b2733b"/><path d="M185.28 44.078c-1.196.217-2.92.39-2.028 2.033 4.055 6.81 7.282 14.97 6.825 23.04a26.328 26.328 0 0 1-5.85 15.1c-.738 1.73 1.162 1.17 2.282 1.03C193 85.01 199 82.15 203.1 77c1.14-1.035 1.73-2.27 3.11-2.99 2.66-1.006 3.05-4.285 3.9-6.63.85-1.93-1.73-2.835-2.69-4.083-7.02-6.316-13.93-12.76-21.08-18.924a1.785 1.785 0 0 0-1.07-.277zm58.084 39.972c-.81.522-1.54 1.166-2.314 1.742-1.57 1.238-3.17 2.444-4.706 3.723-.448.445-.333 1.265.218 1.57.45.195.946.377 1.444.33.57-.16.953-.657 1.412-1 1.766-1.54 3.532-3.094 5.132-4.81.415-.492 2.562-3.322 1.937-3.53-.24-.124-2.88 1.892-3.123 1.975z" fill="#b2733b"/><path d="M209.603 66.054c-.91.64-.224 1.814-.648 2.767-.518 1.39-.99 3.5-2.334 4.31-1.02.17-2.05.86-2.02 1.8-.1 3.6-.18 7.23.14 10.82.56 4.45 1.13 8.9 2.2 13.26.18.93 1.24 1.17 1.99.768 8.95-2.82 17.91-5.624 26.83-8.504.93-.226 1.09-1.49.34-2.016-1.463-1.427-2.956-2.86-4.56-4.11-.86-.497-1.51.503-1.725 1.23-1.003 1.94-2.4 3.81-4.324 4.9-1.36.774-3.265.806-4.36-.433-1.77-1.93-1.72-4.81-1.34-7.243.675-3.356 2.53-6.673 5.55-8.424.763-.53 2.103-.25 2.42-1.3.307-1.114-1.01-1.472-1.824-1.692-2.67-.806-5.613-.504-8.136.647-1.936-2.05-4.166-3.825-6.218-5.75-.57-.455-1.107-1.306-1.964-1.01z" fill="#b2733b"/><path d="M236.552 89.488c-2.38.39-4.645 1.317-6.962 1.974-7.283 2.308-14.584 4.566-21.84 6.962-1.075.59-.377 1.87-.254 2.772.53 2.1.92 4.257 1.647 6.295.53.83 1.712.42 2.007-.4 1.844-3.02 5.12-4.83 8.43-5.85 3.062-1.05 6.357-1.51 9.345-2.83 3.166-2.11 6.045-4.62 9.05-6.95.733-.62.21-1.79-.704-1.84a2.036 2.036 0 0 0-.71-.112zm-13.728-17.54c-1.677.07-3.39.41-4.907 1.13-.775.573-.293 1.614.37 2.05.99.87 1.897 1.893 2.99 2.613 1.107.45 1.704-.91 2.468-1.44.837-.83 1.953-1.24 2.986-1.75.87-.59.35-1.92-.61-2.04-1.06-.33-2.17-.58-3.29-.56z" fill="#b2733b"/><path d="M261.9 96.626c-1.106.057-.913 1.38-.5 2.053 1.9 4.55 3.437 9.27 4.47 14.11 1.082 5.19 2.088 10.4 2.433 15.72.163 1.98-.108 4.15.194 6.15.647 1.09 1.716-.18 2.245-.76 8.397-8.42 15.988-17.6 23.473-26.83.64-.58 1.08-1.93-.082-2.19-4.84-1.36-9.716-2.6-14.586-3.82-1.28.33-1.647 1.87-2.63 2.64-1.46 1.394-3.71 2.91-5.738 1.803-2.27-1.403-2.62-4.35-2.58-6.786-.4-1.116-1.96-.848-2.88-1.288-1.27-.29-2.53-.76-3.84-.828z" fill="#520"/><path d="M237.955 90.416c-3.172 2.518-6.247 5.174-9.607 7.434-4.54 1.782-9.61 2.2-13.822 4.823-2.24 1.37-4.305 3.42-5.006 5.99 2.447 8.872 5.6 17.586 9.095 26.113.83 1.705 1.332 3.647 2.514 5.128 2.88.955 6.08 1.853 9.09 1.042.97-1.173 1.9-3.27 3.46-3.436 1.21-.05 1.65-.86.48-1.165-2.88-1.442-5.73-3.384-7.38-6.214-.95-1.72-.34-3.95 1.3-5.02 4.083-2.83 9.85-3.32 14.19-.76 2.492 1.46 4.72 3.54 6.112 6.09.33 1.09-.81 2-1.346 2.83-1.046 1.433-2.473 2.56-4.226 2.97-1.295.544-4.18.12-5.31.967-.82 3.094 2.746 6.734 5.36 8.22 2.414 1.376 5.05 2.46 7.145 4.31 1.162.44 2.213-.74 3.222-1.216 5.51-3.522 10.597-7.706 15.214-12.33.634-.606.466-1.534.37-2.366.4-3.786-.02-7.576-.522-11.335-.37-3.03-1.38-5.84-1.653-8.865-.72-1.63-1.05-3.38-1.345-5.11-.67-1.01-.518-2.62-1.02-3.743-.79-2.63-2.067-5.142-2.857-7.752-.6-.906-1.48-1.024-2.337-1.485-1.37-.05-2.776-.474-3.995-1.062-2.47-.27-4.86-1.12-7.265-1.716-.886-.245-1.66-.68-2.593-.664-1.05-.24-2.094-.496-3.064-.97-1.44.07-2.79-.83-4.22-.68zm5.044 1.23c.03.06-.05-.06 0 0zm12.98 3.613c.06.25-.05-.12 0 0zm5.91 2.68s0-.01 0 0zm3.02 9.7c.04.01-.05-.01 0 0zm.85 1.51c-.02.04.01-.03 0 0zm.84 3.76c.1.083-.17-.12 0 0zm1.84 22.96c-.1.04.04-.028 0 0z" fill="#fff"/><path d="M262.437 69.265C257.19 73.388 251.8 77.35 246.732 81.7c-1.667 1.798-3.215 3.75-5.044 5.37-1.025 1.144-2.55 1.95-3.22 3.354-.188 1.39 1.56 1.414 2.502 1.635 1.985.4 3.892 1.11 5.885 1.5 3.546 1.07 7.162 1.79 10.687 2.83 1.1.04 2.046.72 3.126.77 1.23-.62.61-2.25 1.15-3.32 1.237-3.21 1.973-6.59 2.093-10.03.25-4.624.4-9.3-.09-13.897-.12-.64-.82-.866-1.38-.666zm33.628 35.422c-1.91 1.097-4.18 5.014-5.722 6.547-6.61 8.126-13.804 15.74-21.253 23.115-6.955 6.92-14.153 12.15-23.51 15.55-4.084 1.46-10.58-.83-14.727-2.39-5.494-2.5-7.165-4.07-9.718-9.21a181.096 181.096 0 0 1-8.733-23.16c-.03-1.18-.986-2.15-1.12-3.37-.357-1.08-.794-3.47-2.443-2.53-7.74 9.65-13.35 20.76-20.8 30.63-5.73 7.83-9.34 15.73-14.51 23.95-1.59 2.49-3.09 4.64-2.12 7.482 4.03 1.28 4.84 1.59 8.97 2.625 6.32 1.377 12.64 2.94 18.96 4.21.93-.104 2.14.264 3.08.665 1.687.49 3.577.608 5.323 1.09 5.2 1.19 10.48 2.227 15.62 3.594 1.233.55 2.755.395 4.023.834 3.197.534 6.31 1.786 9.566 1.84 1.59-.41 3.215-.62 4.7-1.34 1.52-.58 3.172-.83 4.692-1.23 1.69-.87 3.67-1.4 5.55-1.6 3.89-1.64 8.09-2.645 12.102-3.97 4.963-1.58 10.04-2.93 14.932-4.64.41-.74 1.284-.02 1.99-.465 1.7-.497 3.44-.998 5.135-1.305 2.57-1.165 5.398-1.863 8.06-2.56 1.257-.074 2.33-1.047 3.63-1.23 1.15-.375 3.568.104 2.436-1.64-2.62-3.94-5.54-8.327-7.83-12.477-2.525-7.13-3.878-14.65-4.6-22.15-.28-2.99-.064-6.04 1.2-8.81 1.853-5.334 4.745-10.21 6.742-15.48.117-.71 1.035-2.73.358-2.585zm-84.513 9.034c.19.08-.135-.03 0 0zm-9.47 64.53c-.028-.02-.04-.17 0 0z" fill="#fff"/><path d="M249.375 25.233c-1.768.096-3.66-.096-5.317.563-.642 1.192 1.042 1.894 1.587 2.76 3.775 4.106 7.817 8.12 10.528 13.044.928 1.51.833 3.32.423 4.978-1.972 9.29-4.493 18.524-7.286 27.6-.61 2.154-1.524 4.237-2.132 6.387-.105 1.074 1.395 1.342 1.833.436 4.58-3.74 9.28-7.44 14.02-10.94 1.43-.52.66-2.27.85-3.4.06-4.93-.17-9.88.23-14.79.58-2.79 2.58-4.96 4.09-7.28 3.03-4.035 6.39-8.194 11.12-10.27 1.01-.7-.07-1.682-.86-1.93-8.81-4.93-19.01-7.257-29.07-7.135z" fill="#fff"/><path d="M234.927 136.87c-2.16.114-3.5 2.068-4.47 3.77-1.032 1.08-2.78.53-4.054.296-1.49-.29-2.84-1.165-4.348-1.308-1.094.333-.534 1.522.105 1.995 2.133 2.54 4.832 4.61 7.983 5.71 4 1.425 8.052 3.112 12.346 3.268 2.04-.1 4.19-.22 6.06-1.1.93-.82-.25-1.75-1.03-2.03-2.67-1.46-5.99-2.38-7.56-5.24-.93-1.35-1.43-2.93-2.01-4.42-.76-.743-2.03-.813-3.04-.92zm84.93-95.423c-2.722-.044-5.483 1.257-7.12 3.42-.437.952.797 1.546 1.25 2.258 1.083.595 2.436.45 3.596.882 4.71 1.06 9.355 2.42 14.047 3.5 1.034.114 1.232-1.157.718-1.82-1.017-2.278-2.444-4.46-4.66-5.732-2.333-1.47-5.02-2.626-7.83-2.508z" fill="#b2733b"/><path d="M297.383 41.978c-11.304 8.787-22.59 17.6-33.887 26.398-.718 1.713-.153 3.772-.373 5.62-.264 5.378.346 10.894-.983 16.165-.748 2.53-2.16 5.21-1 7.86 2.34 5.77 4.143 11.74 5.305 17.84 1.247 6.11 2.12 12.25 1.95 18.49.683 1.85 2.233-.32 2.946-1.05 9.05-8.98 16.98-18.97 25.12-28.76.82-1.03 1.36-2.01 2.5-2.78 7.02-6.34 13.97-13.01 22.27-17.7 2.03-1.29 4.81-.99 6.43-2.92 3.51-4.06 4.77-9.523 5.71-14.67.74-4.98.96-10.21-.53-15.07-1.252-1.175-3.33-1.02-4.91-1.66-4.28-1.03-8.51-2.406-12.85-3.135-.99-.213-2.54-1.185-3.96-1.294-4.453-1.084-8.9-2.43-13.363-3.355l-.25.034zm-20.418 46.224c.692.122 2.052-.13 1.815.886 1.333 1.54 1.853 3.6 1.72 5.623-.093 4.6-2.587 9.95-7.395 11.12-2.76.41-4.345-2.74-4.315-5.1-.23-4.05 1.425-8.17 4.25-11.04 1.108-.9 2.477-1.52 3.925-1.48z" fill="#b2733b"/><path d="M298.608 105.992c-1.633.134-.675 2.076-.46 3.008.425.967.4 3.142 1.95 2.724 1.434-1.01 2.97-2.02 4.082-3.38.197-1.59-2.044-1.44-3.05-1.902-.83-.188-1.665-.433-2.522-.45zm-.176-74.018c-3.567.004-7.158.492-10.452 1.924-1.973.802-4.287 1.41-6.27.276-1.225-.812-2.765-.738-4.002-.014-5.132 2.81-8.633 7.73-11.928 12.416-1.27 1.845-2.58 3.84-2.536 6.175-.246 5.11-.1 10.23-.147 15.34.192 1.26 1.607.67 2.128-.02A89552.84 89552.84 0 0 0 297.7 42.76c4.927 1.04 9.813 2.61 14.778 3.6 1.138-.07.862-1.47.19-1.977-2.56-3.347-3.79-7.623-6.962-10.524-1.926-1.86-4.768-1.94-7.274-1.88z" fill="#b2733b"/><path d="M205.37 73.335c-3.13 22.3 12.905 63.15 16.43 67.287 3.85 4.518 5.485 5.368 12 7.644 3.767 1.317 8.104 2.65 12.508 1.57 19.905-4.888 45.94-41.5 51.12-47.217 0 0 19.826-19.51 27.26-20.29 7.432-.79 13.69-30.52 3.52-37.56-10.172-7.04-15.293.46-15.293.46 2.393 2.68 3.746 5.14 9.425 8.53-3.13-1.178-9.37-7.74-11.687-11.55 0 0-3.183-7.355-6.492-9.017-4.14-2.08-12.88-.214-13.9.22-4.07 1.73-6.24 2.844-10.17.39C262.64 22.933 243.71 26 243.71 26s-3.912.78-7.433 1.955c-3.52 1.174-3.912-8.607-10.17-10.17-6.26-1.566-16.432 3.128-21.908 7.04l5.89-3.532c-3.13-7.05-42.56-.294-26.92 24.746 15.65 25.03.28 39.02.28 39.02s14.475 1.95 21.91-11.74" fill="none" stroke="#000"/><path d="M327.82 77.01c-.705.194-2.15 2.942-2.904 2.988-2.117.36-4.44 2.257-6.266 3.327-4.355 2.703-8.23 5.417-12.11 8.753-3.03 2.66-6.154 5.64-9.002 8.498-.405.404-.884 2.415-.69 3.04.207.987.364 2.006.757 2.938.392.527 1.132.51 1.7.727 1.526.39 3.04.84 4.574 1.18.69.05 1.16-.58 1.67-.94 6.55-5.51 12.68-11.6 17.72-18.54 1.49-2.09 2.91-4.25 4.09-6.53.243-.563 1.01-4.88.44-5.42z" fill="#b2733b"/><path d="M268.31 135.777c1.955-7.042-2.756-28.93-5.886-35.58-3.13-6.65-.33-4.955.844-13.56 1.173-8.608-.783-33.254.782-36.383 1.565-3.13 9.78-15.65 16.04-16.43m15.256 11.344c-6.116 19.7-.242 53.82 4.078 66.7 0 0 21.164-14.996 29.164-32.62m-123.76-5.67c.34.083 1.196-.172 1.488-.27 5.646-1.88 3.018-35.753 27.74-33.91m-13.253 99.798s8.166 4.3 10.168 1.625c1.82-4.86 6.55-3.63 6.55-3.63s1.21 6.78 5.96 8.79a59.265 59.265 0 0 1 5.81 2.87m-34.53-72.38c1.43-4.024 11.098-6.832 15.996-.203m56.377 22.11c.28-5.87-9.78-15.7-15.8-7.274" fill="none" stroke="#000"/><path d="M171.2 172.805c-.3 1.944-.692 1.076-.3 1.944 1.07 2.6.754 2.97 2.04 5.43.81 2.39.193 4.96-.098 7.39-.117.56-.33 1.08-.29 1.67-.094.88-.375 1.73-.63 2.55.026.93-.32 1.842-.628 2.694.01 1.075-.407 2.126-.73 3.127-.105 1.41-.68 2.778-.606 4.22a6.058 6.058 0 0 0 .36 2.63c.734 2.59 1.995 5.11 3.888 7.05.986 1.08 2.552 1.41 3.928.99.713 1.12 2.013 1.7 3.106 2.394.745.354 1.49.83 2.352.59 1.22-.07 2.704-.712 2.788-2.11 1.142.24 1.686-1.12 2.465-1.71.828-.87 1.754-1.765 2.043-2.975 1.027.237 1.515-.99 2.12-1.615 2.88-4.025 4.44-8.83 5.594-13.6.483-2 .76-4.044 1.056-6.08.337-.71.06-1.563.21-2.336.182-2.284.404-4.576.35-6.86-.185-1.16-1.558-.926-2.407-1.22-8.94-1.965-17.88-4-26.82-6.01-.86-.155 1.19.77.3.855zm1.805 15.037c.022-.047.226-.153 0 0zm26.067.01c-.367.098.148-.067 0 0zm-26.395 2.968c.083-.052.252-.042 0 0zm-.61 2.748c.05-.042.27-.054 0 0zm-.66 1.496c-.004-.003-.012-.034 0 0zm-1.143 8.912c-.19-.264-.195-.292 0 0zm11.653 11.068c-.14-.2-.237-.53 0 0zm.254.28c-.16-.1-.27-.266 0 0z" fill="#fff"/><path d="M210.055 108.148c-17.148 22.343-36.782 54.803-37.808 58.09-2.914 9.327-.204 10.28 1.196 13.934s-1.718 14.828-2.89 19.913c-1.175 5.086 3.91 12.91 6.258 12.128 2.35-.783 5.48 5.868 9.78 1.173 4.31-4.694 5.96-5.767 7.83-9.39 5.12-9.946 5.97-14.38 5.49-26.295" fill="none" stroke="#000"/><path d="M299.14 165.536c-1.145.286-1.028 1.392-2.182 1.68-2.834 1.178-5.882 1.68-8.766 2.714-1.847.776-3.785 1.262-5.73 1.718-1.034.27-2.053.655-3.122.692-1.16.35-.628 1.806-.707 2.704.15 3.42.03 6.97 1.235 10.23.837 1.838 2.334 3.35 3.957 4.497.548.16.845.76 1.43.98 1.628.93 3.458 1.68 5.347 1.74.39.06.748-.57.992-.42.794.67 1.833-.06 2.64-.38 1.428-.88 2.58-2.29 3.384-3.79.01-.66.592-1.89 1.138-2.09 1.696-2.11.99-3.23 2.037-5.73.867-2.362 1.24-4.473 1.035-7.05.148-.34-.317-1.98-.086-1.71.18.26-.168-1.2-.2-1.36-.747-1.55-.538-1.63-1.503-3.056-.23-.222-.58-1.36-.9-1.35z" fill="#fff"/><path d="M297.028 102.905c-1.564 5.477-9.896 19.33-9.896 25.98 0 6.65 3.52 23.865 5.867 26.994 2.34 3.13 8.9 10.55 8.82 17.13-.39 3.52-1.79 13.77-6.88 17.68s-12.52-1.57-14.478-5.09c-1.956-3.52-1.35-16.01-1.174-18 .163-1.86 3.476-6.388 8.55-5.55 4.3 1.17 5.23 1.95 5.23 1.95m-14.02 9l-42.58 12.96-36.58-8.274c-.048-2.848.686-7.107-.135-9.11-1.803-4.407-2.16-10.64-11.066-13.457" fill="none" stroke="#000" stroke-width="1.002"/><path d="M176.97 212.197s2.5-7.402 1.485-10.076m5.65 12.86c.27-2.05 3.03-7.72-.124-13.37m6.16 7.98c1.28-3.36-.06-6.17-1.05-9.32m95.31-10.74c1.63-1.89.29-5.48-.39-8.21m6.89 10.8c2.91-1.564 0-7.787.02-10.757m6.05 7.226c1.37-1.865-.684-4.597-1.75-7.9" fill="none" stroke="#000"/><ellipse ry="10.01" rx="6.411" cy="-23.609" cx="-240.334" transform="matrix(-.9675 -.25287 .30387 -.9527 0 0)"/><ellipse transform="matrix(-.9675 -.25287 .30387 -.9527 0 0)" cx="-291.587" cy="-24.582" rx="6.411" ry="10.01"/><path d="M239.013 137.884c.636-.147 4.4-1.32 5.72-1.86 1.322-.536 4.158-4.106 4.304-5.084.147-.978-6.16-11.052-16.626-8.264-10.46 2.787-5.42 8.948-4.64 9.633.78.68 4.56 5.34 10.97 5.58z" fill-rule="evenodd" stroke="#000"/><path d="M209.876 108.668c3.52-8.998 16.04-8.216 19.56-10.954 3.52-2.738 14.663-11.078 17.4-15.773 2.74-4.69 10.172-33.25 10.563-37.55.39-4.3-10.96-15.65-13.7-18.38" fill="none" stroke="#000"/></g><path style="line-height:32.64417648px;-inkscape-font-specification:Ubuntu" d="M572.285 159.084q0 22.564-7.02 39.36-7.02 16.548-19.806 27.58-12.79 10.78-30.59 16.295-17.8 5.26-39.11 5.26-10.53 0-23.32-1.01-12.54-.75-22.82-3.26V74.84q10.28-2.5 22.81-3.26 12.784-1 23.314-1 21.31 0 39.11 5.52 17.8 5.27 30.586 16.3 12.785 10.78 19.805 27.58 7.02 16.546 7.02 39.11zm-94.517 67.19q34.598 0 51.646-17.55 17.048-17.8 17.048-49.64t-17.048-49.39q-17.048-17.8-51.646-17.8-10.28 0-16.045.25-5.516.252-7.772.503v132.875q2.26.25 7.78.5 5.77.252 16.05.252z" font-weight="400" font-size="250.707" font-family="Ubuntu" letter-spacing="0" word-spacing="0" fill="#a56b37"/><path style="line-height:32.64417648px;-inkscape-font-specification:Ubuntu" d="M629.167 229.282q8.273 0 14.54-.25 6.52-.502 10.782-1.505v-38.86q-2.51-1.253-8.28-2.005-5.52-1.003-13.54-1.003-5.27 0-11.28.75-5.77.75-10.78 3.26-4.77 2.25-8.03 6.52-3.26 4.01-3.26 10.78 0 12.53 8.02 17.55 8.02 4.76 21.81 4.76zm-2.006-116.83q14.04 0 23.57 3.76 9.78 3.51 15.55 10.28 6.02 6.52 8.53 15.795 2.51 9.025 2.51 20.056v81.48q-3.01.502-8.522 1.505-5.265.752-12.034 1.504-6.77.752-14.79 1.253-7.773.753-15.545.753-11.034 0-20.31-2.257-9.276-2.25-16.045-7.02-6.77-5.01-10.53-13.03t-3.76-19.3q0-10.78 4.26-18.55 4.514-7.77 12.035-12.53 7.524-4.76 17.55-7.02 10.03-2.254 21.06-2.254 3.51 0 7.27.5 3.76.25 7.02 1 3.51.505 6.02 1.006 2.505.5 3.51.75v-6.52q0-5.767-1.256-11.283-1.258-5.767-4.517-10.03-3.26-4.52-9.023-7.02-5.513-2.76-14.54-2.76-11.53 0-20.305 1.75-8.527 1.506-12.79 3.26l-2.76-19.304q4.51-2.01 15.04-3.766 10.53-2.004 22.817-2.004zm153.39 120.59q-3.01 2.007-11.78 5.266-8.52 3.008-20.05 3.008-11.783 0-22.313-3.76-10.28-3.76-18.05-11.533-7.775-8.023-12.29-19.806-4.51-11.783-4.51-28.08 0-14.29 4.262-26.073 4.26-12.033 12.283-20.558 8.274-8.774 20.057-13.538 11.78-5.014 26.572-5.014 16.293 0 28.33 2.507 12.28 2.26 20.555 4.27v116.32q0 30.09-15.545 43.63-15.542 13.54-47.13 13.54-12.285 0-23.316-2-10.78-2.006-18.804-4.763l4.262-20.31q7.02 2.76 17.044 4.765 10.28 2.257 21.31 2.257 20.81 0 29.838-8.274 9.276-8.274 9.276-26.325zm-.25-96.772q-3.51-1.003-9.53-1.755-5.76-1.003-15.79-1.003-18.8 0-29.08 12.285-10.03 12.284-10.03 32.592 0 11.28 2.76 19.3 3.01 8.02 7.77 13.29 5.02 5.26 11.29 7.77 6.518 2.5 13.287 2.5 9.274 0 17.046-2.51 7.77-2.76 12.285-6.27z" font-weight="400" font-size="250.707" font-family="Ubuntu" letter-spacing="0" word-spacing="0" fill="#ffae44"/><path style="line-height:32.64417648px;-inkscape-font-specification:Ubuntu" d="M862.44 247.584q-5.265 0-11.532-.25-6.017-.25-12.285-.753-6.017-.5-12.034-1.25-6.02-.75-11.04-2V74.85q5.01-1.255 11.03-2.007 6.02-.75 12.03-1.25 6.27-.5 12.28-.75 6.016-.25 11.28-.25 15.043 0 28.08 2.26 13.29 2.256 22.814 7.772 9.78 5.266 15.295 14.04 5.52 8.775 5.52 21.56 0 14.29-6.77 23.568-6.767 9.025-18.05 13.538 15.294 4.52 24.32 14.29 9.025 9.78 9.025 27.58 0 26.08-19.305 39.36-19.05 13.04-60.67 13.04zM839.626 165.1v61.174q2.758.25 6.518.5 3.26.252 7.52.503h10.28q10.78 0 20.308-1.254 9.777-1.504 17.048-5.014 7.27-3.51 11.532-9.78 4.513-6.27 4.513-15.8 0-8.53-3.26-14.29-3.258-6.02-9.526-9.53-6.02-3.51-14.55-5.02-8.53-1.51-19.06-1.51zm0-19.554h25.572q9.025 0 17.048-1.253 8.023-1.254 13.79-4.513 6.016-3.26 9.275-8.524 3.51-5.265 3.51-13.288 0-7.52-3.51-12.535-3.51-5.265-9.77-8.273-6.01-3.26-14.29-4.764-8.27-1.504-17.55-1.504-9.27 0-14.54.25-5.26.25-9.53.753z" font-weight="400" font-size="250.707" font-family="Ubuntu" letter-spacing="0" word-spacing="0" fill="#a56b37"/><path style="line-height:32.64417648px;-inkscape-font-specification:Ubuntu" d="M1074.67 180.896q0 15.544-4.512 28.08-4.512 12.534-12.786 21.56-8.023 9.025-19.304 14.04-11.282 4.763-24.57 4.763-13.287 0-24.57-4.77-11.28-5.02-19.554-14.04-8.023-9.03-12.535-21.56-4.52-12.54-4.52-28.08 0-15.29 4.51-27.83 4.51-12.79 12.53-21.81 8.27-9.03 19.55-13.79 11.28-5.02 24.57-5.02 13.29 0 24.57 5.01 11.28 4.76 19.302 13.79 8.272 9.022 12.785 21.81 4.51 12.534 4.51 27.83zm-24.318 0q0-22.062-10.028-34.848-9.778-13.037-26.826-13.037-17.048 0-27.076 13.04-9.778 12.79-9.778 34.85t9.778 35.1q10.028 12.79 27.076 12.79 17.05 0 26.826-12.78 10.028-13.032 10.028-35.1z" font-weight="400" font-size="250.707" font-family="Ubuntu" letter-spacing="0" word-spacing="0" fill="#ffae44"/><path style="line-height:32.64417648px;-inkscape-font-specification:Ubuntu" d="M1159.824 246.08q-2.758-5.516-6.77-12.285-4.01-6.77-8.774-13.79-4.763-7.27-9.777-14.29-5.014-7.02-9.778-13.287-4.763 6.268-9.777 13.54-5.014 7.018-9.778 14.29-4.513 7.02-8.524 13.788-4.01 6.77-6.77 12.034h-24.067q8.77-17.048 20.8-34.598 12.28-17.8 24.32-33.845l-43.12-61.925h26.32l31.08 45.63 31.34-45.63h24.82l-42.12 60.42q12.033 16.296 24.57 34.598 12.785 18.05 21.56 35.35z" font-weight="400" font-size="250.707" font-family="Ubuntu" letter-spacing="0" word-spacing="0" fill="#ffae44"/><path d="M348.563 135.576l-.744.512.39.54.4-.532zM58.686 145.48l.725.52-.37.53-.4-.53zm151.118 178.54l.365.134.6-.278-.69 1.48z" fill="#fff" fill-rule="evenodd"/></svg>